<svg id="Слой_1" data-name="Слой 1" xmlns="http://www.w3.org/2000/svg" viewBox="0 0 37.98 33.96">
  <defs>
    <style>
      .cls-1 {
        fill: #fff;
      }
    </style>
  </defs>
  <title>alleo-logo-white</title>
  <path class="cls-1" d="M26.28,67.22h-1.6l13.43-34h1.6l13.41,34H51.55l-12.63-32ZM39.1,38.76l0.84,1.89L29.44,67.22H27.86Zm1.64,3.9,0.78,2L32.64,67.22H31Zm1.56,4.06,0.78,2.07L35.8,67.22H34.22Zm-4,16.45,0.57-1.48h9.68l0.62,1.48H38.28Zm1.15-3L40,58.73h7.36L48,60.21H39.43Zm1.15-3,0.59-1.48h5l0.59,1.48H40.57Zm2.3-24,13.43,34H54.7l-13.41-34h1.58Zm3.18,0,13.43,34H57.9l-13.43-34H46Zm16.61,34h-1.6l-13.41-34h1.58Z" transform="translate(-24.68 -33.26)"/>
</svg>
