<svg id="Слой_1" data-name="Слой 1" xmlns="http://www.w3.org/2000/svg" viewBox="0 0 24.58 18.46">
  <defs>
    <style>
      .cls-1 {
        fill: #fff;
      }
    </style>
  </defs>
  <title>testimonials-decoration</title>
  <g>
    <path class="cls-1" d="M47.71,36.89q-1.61.92-2.6,1.58a12,12,0,0,0-2,1.75,7.45,7.45,0,0,0-1.47,2.13,10,10,0,0,0-.72,2.91h1.64a5,5,0,0,1,3.33,1,3.81,3.81,0,0,1,1.21,3.06A4,4,0,0,1,46,52.05a3.7,3.7,0,0,1-3,1.25,4.65,4.65,0,0,1-4.2-1.93A9.1,9.1,0,0,1,37.6,46.3a8.57,8.57,0,0,1,1-4A14.31,14.31,0,0,1,40.88,39a16.75,16.75,0,0,1,3-2.49q1.57-1,2.63-1.67Z" transform="translate(-37.6 -34.84)"/>
    <path class="cls-1" d="M62.17,36.89q-1.61.92-2.6,1.58a12,12,0,0,0-2,1.75,7.44,7.44,0,0,0-1.47,2.13,10,10,0,0,0-.72,2.91H57a5,5,0,0,1,3.33,1,3.81,3.81,0,0,1,1.21,3.06,4,4,0,0,1-1.08,2.68,3.7,3.7,0,0,1-3,1.25,4.65,4.65,0,0,1-4.2-1.93,9.09,9.09,0,0,1-1.27-5.07,8.57,8.57,0,0,1,1-4A14.35,14.35,0,0,1,55.34,39a16.72,16.72,0,0,1,3-2.49q1.57-1,2.63-1.67Z" transform="translate(-37.6 -34.84)"/>
  </g>
</svg>
